<?xml version="1.0" encoding="utf-8"?>
<!-- Generator: Adobe Illustrator 17.0.0, SVG Export Plug-In . SVG Version: 6.00 Build 0)  -->
<!DOCTYPE svg PUBLIC "-//W3C//DTD SVG 1.1//EN" "http://www.w3.org/Graphics/SVG/1.1/DTD/svg11.dtd">
<svg version="1.1" id="Layer_1" xmlns="http://www.w3.org/2000/svg" xmlns:xlink="http://www.w3.org/1999/xlink" x="0px" y="0px"
	 width="2000px" height="2000px" viewBox="0 0 2000 2000" enable-background="new 0 0 2000 2000" xml:space="preserve">
<g>
	<g>
		<path fill="#58595B" d="M325.448,1556.182l-23.791-32.27h-15.312v32.27h-13.414v-83.521h30.498c8.436,0,15.269,2.363,20.5,7.086
			c5.231,4.725,7.846,10.884,7.846,18.477c0,5.483-1.414,10.292-4.239,14.426c-2.826,4.133-6.77,7.171-11.833,9.11l25.057,34.421
			H325.448z M286.345,1512.017h16.83c4.64,0,8.268-1.265,10.883-3.796c2.615-2.531,3.923-5.821,3.923-9.871
			c0-4.135-1.308-7.466-3.923-9.997c-2.615-2.531-6.243-3.797-10.883-3.797h-16.83V1512.017z"/>
		<path fill="#58595B" d="M456.561,1529.48h-46.316c0.844,5.147,3.08,9.154,6.707,12.022c3.627,2.868,8.141,4.303,13.54,4.303
			c6.496,0,12.529-2.448,18.097-7.34l6.327,9.112c-7.086,6.664-15.354,9.997-24.803,9.997c-9.617,0-17.59-3.101-23.917-9.302
			c-6.327-6.201-9.491-13.899-9.491-23.094c0-9.112,3.1-16.81,9.301-23.094c6.201-6.286,13.815-9.429,22.842-9.429
			c8.268,0,15.122,2.7,20.563,8.099c5.442,5.399,8.163,12.191,8.163,20.375C457.574,1523.744,457.236,1526.528,456.561,1529.48z
			 M416.89,1508.032c-3.249,2.741-5.379,6.432-6.391,11.072h33.787c-0.084-4.64-1.645-8.331-4.682-11.072
			c-3.037-2.742-6.792-4.113-11.263-4.113C423.955,1503.918,420.137,1505.289,416.89,1508.032z"/>
		<path fill="#58595B" d="M564.769,1502.274l-7.213,8.225c-4.049-4.218-8.901-6.327-14.553-6.327c-5.653,0-8.479,1.981-8.479,5.947
			c0,1.603,0.611,2.932,1.835,3.986c1.223,1.055,3.353,2.173,6.39,3.354l5.948,2.404c5.905,2.448,10.208,5.083,12.908,7.909
			c2.7,2.827,4.049,6.433,4.049,10.82c0,5.99-2.193,10.651-6.581,13.984c-4.387,3.331-9.871,4.999-16.451,4.999
			c-10.546,0-18.898-4.007-25.056-12.022l7.593-8.353c5.652,5.906,11.474,8.858,17.464,8.858c2.868,0,5.251-0.589,7.15-1.77
			c1.898-1.181,2.847-2.911,2.847-5.188c0-1.857-0.696-3.29-2.088-4.303c-1.392-1.013-3.607-2.151-6.644-3.416l-6.328-2.659
			c-5.484-2.278-9.554-4.766-12.211-7.466c-2.658-2.7-3.986-6.242-3.986-10.63c0-5.568,2.067-9.954,6.201-13.161
			c4.134-3.205,9.365-4.809,15.692-4.809C552.198,1492.655,559.369,1495.862,564.769,1502.274z"/>
		<path fill="#58595B" d="M668.545,1544.919v11.263c-4.218,0.928-7.888,1.392-11.01,1.392c-7.17,0-12.781-1.793-16.83-5.378
			c-4.049-3.586-6.074-9.007-6.074-16.262v-30.372h-10.124v-11.515h10.124v-16.324h13.414v16.324h18.475v11.515h-18.475v29.233
			c0,3.964,1.033,6.749,3.1,8.353c2.067,1.602,5.125,2.404,9.175,2.404C662.176,1545.552,664.918,1545.341,668.545,1544.919z"/>
		<path fill="#58595B" d="M832.946,1556.182h-13.414v-83.521h13.414V1556.182z"/>
		<path fill="#58595B" d="M951.148,1499.426c4.134,4.514,6.2,10.483,6.2,17.906v38.85h-13.287v-37.079
			c0-4.302-1.244-7.782-3.733-10.44c-2.489-2.657-5.758-3.986-9.808-3.986c-4.134,0-7.529,1.35-10.187,4.049
			c-2.657,2.7-3.987,6.158-3.987,10.376v37.079H903.06v-62.135h12.402v6.201c4.64-5.062,10.84-7.593,18.602-7.593
			C941.319,1492.655,947.014,1494.913,951.148,1499.426z"/>
		<path fill="#58595B" d="M1164.396,1479.748c5.231,4.725,7.847,10.884,7.847,18.477c0,7.592-2.616,13.772-7.847,18.538
			c-5.231,4.768-12.063,7.15-20.499,7.15h-17.085v32.27h-13.413v-83.521h30.498
			C1152.332,1472.661,1159.165,1475.024,1164.396,1479.748z M1126.812,1484.556v27.461h16.831c4.724,0,8.374-1.245,10.946-3.734
			c2.574-2.489,3.86-5.8,3.86-9.933c0-4.135-1.286-7.466-3.86-9.997c-2.572-2.531-6.222-3.797-10.946-3.797H1126.812z"/>
		<path fill="#58595B" d="M1249.953,1464.626c1.772,1.729,2.657,3.817,2.657,6.263c0,2.448-0.885,4.514-2.657,6.201
			c-1.772,1.687-3.881,2.531-6.327,2.531c-2.531,0-4.683-0.844-6.455-2.531c-1.772-1.687-2.657-3.753-2.657-6.201
			c0-2.446,0.885-4.534,2.657-6.263c1.772-1.729,3.923-2.595,6.455-2.595C1246.072,1462.031,1248.181,1462.897,1249.953,1464.626z
			 M1250.205,1556.182h-13.287v-62.135h13.287V1556.182z"/>
		<path fill="#58595B" d="M1375.998,1529.48h-46.316c0.844,5.147,3.079,9.154,6.707,12.022c3.629,2.868,8.141,4.303,13.541,4.303
			c6.497,0,12.528-2.448,18.096-7.34l6.329,9.112c-7.088,6.664-15.355,9.997-24.804,9.997c-9.617,0-17.59-3.101-23.917-9.302
			c-6.327-6.201-9.491-13.899-9.491-23.094c0-9.112,3.1-16.81,9.302-23.094c6.201-6.286,13.816-9.429,22.842-9.429
			c8.267,0,15.121,2.7,20.563,8.099s8.163,12.191,8.163,20.375C1377.011,1523.744,1376.674,1526.528,1375.998,1529.48z
			 M1336.327,1508.032c-3.248,2.741-5.378,6.432-6.391,11.072h33.788c-0.085-4.64-1.646-8.331-4.683-11.072
			c-3.037-2.742-6.792-4.113-11.263-4.113C1343.391,1503.918,1339.574,1505.289,1336.327,1508.032z"/>
		<path fill="#58595B" d="M1487.179,1496.515c4.514,2.574,8.12,6.096,10.82,10.568l-9.364,7.34
			c-4.472-6.329-10.039-9.491-16.705-9.491c-5.651,0-10.313,1.94-13.983,5.821c-3.67,3.879-5.506,8.647-5.506,14.298
			c0,5.821,1.836,10.651,5.506,14.49s8.331,5.758,13.983,5.758c6.581,0,12.148-3.12,16.705-9.364l9.364,7.214
			c-5.99,9.617-14.722,14.426-26.195,14.426c-9.195,0-16.978-3.143-23.348-9.428c-6.37-6.286-9.555-13.984-9.555-23.096
			c0-9.11,3.186-16.789,9.555-23.031c6.37-6.244,14.153-9.365,23.348-9.365C1477.541,1492.655,1482.667,1493.943,1487.179,1496.515z
			"/>
		<path fill="#58595B" d="M1617.976,1529.48h-46.316c0.844,5.147,3.079,9.154,6.707,12.022c3.629,2.868,8.141,4.303,13.541,4.303
			c6.497,0,12.528-2.448,18.096-7.34l6.328,9.112c-7.088,6.664-15.355,9.997-24.804,9.997c-9.617,0-17.59-3.101-23.917-9.302
			c-6.327-6.201-9.491-13.899-9.491-23.094c0-9.112,3.101-16.81,9.302-23.094c6.201-6.286,13.816-9.429,22.842-9.429
			c8.267,0,15.121,2.7,20.563,8.099c5.442,5.399,8.163,12.191,8.163,20.375C1618.989,1523.744,1618.651,1526.528,1617.976,1529.48z
			 M1578.304,1508.032c-3.248,2.741-5.378,6.432-6.391,11.072h33.788c-0.085-4.64-1.646-8.331-4.683-11.072
			c-3.037-2.742-6.792-4.113-11.263-4.113C1585.369,1503.918,1581.552,1505.289,1578.304,1508.032z"/>
		<path fill="#58595B" d="M1726.184,1502.274l-7.214,8.225c-4.049-4.218-8.901-6.327-14.553-6.327c-5.651,0-8.479,1.981-8.479,5.947
			c0,1.603,0.612,2.932,1.836,3.986c1.224,1.055,3.353,2.173,6.391,3.354l5.947,2.404c5.905,2.448,10.208,5.083,12.908,7.909
			c2.7,2.827,4.049,6.433,4.049,10.82c0,5.99-2.194,10.651-6.581,13.984c-4.387,3.331-9.871,4.999-16.452,4.999
			c-10.545,0-18.898-4.007-25.056-12.022l7.593-8.353c5.653,5.906,11.473,8.858,17.463,8.858c2.87,0,5.252-0.589,7.15-1.77
			s2.848-2.911,2.848-5.188c0-1.857-0.697-3.29-2.089-4.303c-1.391-1.013-3.606-2.151-6.643-3.416l-6.327-2.659
			c-5.484-2.278-9.555-4.766-12.212-7.466c-2.657-2.7-3.986-6.242-3.986-10.63c0-5.568,2.067-9.954,6.199-13.161
			c4.135-3.205,9.365-4.809,15.692-4.809C1713.613,1492.655,1720.784,1495.862,1726.184,1502.274z"/>
	</g>
	<g>
		<g>
			<g>
				<g>
					<g>
						<path fill="#58595B" d="M384.973,1341.593l-47.308-64.456h-27.388v64.456h-37.345v-182.582h68.607
							c19.364,0,35.176,5.394,47.448,16.183c12.264,10.788,18.396,25.036,18.396,42.741c0,11.619-2.86,21.9-8.576,30.845
							c-5.721,8.944-13.56,15.906-23.52,20.886l51.736,71.926H384.973z M310.276,1244.216h31.262c8.667,0,15.444-2.398,20.331-7.193
							c4.887-4.796,7.331-11.158,7.331-19.088c0-7.746-2.489-14.017-7.468-18.811c-4.981-4.796-11.713-7.194-20.194-7.194h-31.262
							V1244.216z"/>
						<path fill="#58595B" d="M538.396,1138.263c4.699,4.426,7.051,9.959,7.051,16.599c0,6.454-2.352,11.894-7.051,16.322
							c-4.705,4.425-10.374,6.639-17.014,6.639c-6.64,0-12.264-2.214-16.877-6.639c-4.608-4.428-6.914-9.867-6.914-16.322
							c0-6.64,2.307-12.172,6.914-16.599c4.613-4.426,10.237-6.64,16.877-6.64C528.022,1131.623,533.692,1133.837,538.396,1138.263z
							 M540.195,1341.593h-37.351v-136.936h37.351V1341.593z"/>
						<path fill="#58595B" d="M758.609,1221.808c12.447,13.463,18.67,30.523,18.67,51.178c0,20.657-6.223,37.808-18.67,51.456
							c-12.452,13.647-28.359,20.471-47.719,20.471c-17.157,0-30.802-5.532-40.942-16.599v63.073h-37.351v-186.731h34.308v17.151
							c9.775-13.463,24.436-20.194,43.985-20.194C730.25,1201.614,746.156,1208.345,758.609,1221.808z M729.142,1300.512
							c6.828-6.916,10.237-15.999,10.237-27.25c0-11.435-3.363-20.609-10.094-27.525c-6.731-6.916-15.17-10.374-25.316-10.374
							c-9.403,0-17.516,3.182-24.345,9.543c-6.823,6.363-10.231,15.724-10.231,28.079c0,12.172,3.363,21.533,10.094,28.079
							c6.731,6.547,14.896,9.822,24.482,9.822C713.932,1310.886,722.32,1307.428,729.142,1300.512z"/>
						<path fill="#58595B" d="M962.932,1210.605c10.14,5.993,18.167,14.246,24.065,24.759l-26.001,20.194
							c-8.855-13.279-19.829-19.917-32.921-19.917c-10.517,0-19.138,3.55-25.869,10.651c-6.731,7.1-10.094,15.998-10.094,26.694
							c0,10.882,3.363,19.873,10.094,26.973c6.731,7.101,15.353,10.651,25.869,10.651c12.726,0,23.694-6.547,32.921-19.642
							l26.001,19.919c-5.898,10.512-13.971,18.811-24.202,24.897c-10.237,6.086-21.993,9.129-35.273,9.129
							c-20.474,0-37.808-6.917-52.007-20.748c-14.205-13.833-21.302-30.892-21.302-51.179c0-20.101,7.097-37.023,21.302-50.762
							c14.199-13.74,31.533-20.61,52.007-20.61C940.985,1201.614,952.786,1204.61,962.932,1210.605z"/>
						<path fill="#58595B" d="M1193.113,1285.712h-96.272c2.398,8.668,6.96,15.353,13.691,20.056
							c6.731,4.703,15.079,7.055,25.036,7.055c13.463,0,26.189-4.612,38.179-13.832l15.49,25.451
							c-16.226,13.647-34.485,20.471-54.776,20.471c-21.576,0-39.464-6.87-53.663-20.61c-14.205-13.74-21.302-30.754-21.302-51.041
							c0-20.101,6.868-37.07,20.605-50.901c13.743-13.833,30.757-20.748,51.042-20.748c18.995,0,34.491,6.086,46.475,18.257
							c11.99,12.172,17.985,27.295,17.985,45.37C1195.602,1271.88,1194.768,1278.704,1193.113,1285.712z M1109.013,1239.236
							c-5.904,4.98-9.963,11.712-12.172,20.196h62.518c-0.183-8.484-3.135-15.216-8.85-20.196
							c-5.721-4.979-12.635-7.469-20.748-7.469C1121.83,1231.767,1114.911,1234.257,1109.013,1239.236z"/>
						<path fill="#58595B" d="M1315.54,1138.263c4.699,4.426,7.051,9.959,7.051,16.599c0,6.454-2.352,11.894-7.051,16.322
							c-4.705,4.425-10.374,6.639-17.014,6.639c-6.64,0-12.264-2.214-16.877-6.639c-4.608-4.428-6.914-9.867-6.914-16.322
							c0-6.64,2.307-12.172,6.914-16.599c4.613-4.426,10.237-6.64,16.877-6.64
							C1305.166,1131.623,1310.835,1133.837,1315.54,1138.263z M1317.338,1341.593h-37.351v-136.936h37.351V1341.593z"/>
						<path fill="#58595B" d="M1535.758,1221.808c12.447,13.463,18.67,30.523,18.67,51.178c0,20.657-6.223,37.808-18.67,51.456
							c-12.452,13.647-28.359,20.471-47.719,20.471c-17.151,0-30.802-5.532-40.942-16.599v63.073h-37.351v-186.731h34.308v17.151
							c9.775-13.463,24.436-20.194,43.985-20.194C1507.399,1201.614,1523.305,1208.345,1535.758,1221.808z M1506.297,1300.512
							c6.823-6.916,10.231-15.999,10.231-27.25c0-11.435-3.363-20.609-10.094-27.525c-6.731-6.916-15.17-10.374-25.316-10.374
							c-9.403,0-17.516,3.182-24.345,9.543c-6.823,6.363-10.231,15.724-10.231,28.079c0,12.172,3.363,21.533,10.094,28.079
							c6.731,6.547,14.896,9.822,24.482,9.822C1491.082,1310.886,1499.469,1307.428,1506.297,1300.512z"/>
						<path fill="#58595B" d="M1727.069,1310.333v31.26c-8.85,2.212-17.425,3.32-25.727,3.32c-17.334,0-30.797-4.288-40.388-12.865
							c-9.592-8.576-14.382-21.439-14.382-38.59v-57.266h-21.582v-31.536h21.582v-34.58h37.345v34.58h38.727v31.536h-38.727v53.945
							c0,7.746,2.027,13.233,6.086,16.46c4.054,3.227,10.511,4.84,19.361,4.84
							C1711.579,1311.439,1717.483,1311.071,1727.069,1310.333z"/>
					</g>
				</g>
			</g>
		</g>
		<g>
			<g>
				<path fill="#ADE05C" d="M884.034,908.701h-16.416c-15.562,0-23.27-10.442-25.862-14.931s-7.779-16.385,0.004-29.866
					l13.307-23.059l-49.588-145.54l-63.936,110.744c-26.316,45.578-26.318,100-0.002,145.582
					c26.316,45.579,73.447,72.789,126.076,72.789h16.416V908.701z"/>
			</g>
		</g>
		<g>
			<path fill="#ADE05C" d="M1329.52,806.049l-72.584-125.718l-156.272-39.235l128.641,222.812c7.779,13.476,2.592,25.373,0,29.861
				c-2.592,4.49-10.3,14.932-25.862,14.932h-45.138l-68.81,115.718h113.947c52.63,0,99.76-27.211,126.078-72.791
				C1355.832,906.049,1355.832,851.628,1329.52,806.049z"/>
			<path fill="#ADE05C" d="M1230.115,633.878l-49.213-85.24l-8.953-3.857c-30.352-13.078-60.103-17.032-88.423-11.76l-40.867,7.608
				l31.185,54.014L1230.115,633.878z"/>
		</g>
		<g>
			<path fill="#ADE05C" d="M1113.162,908.701H867.617c-15.561,0-23.27-10.442-25.862-14.932c-2.592-4.488-7.779-16.385,0.004-29.866
				l13.307-23.06l-49.587-145.54l-63.936,110.744c-26.316,45.579-26.318,100-0.002,145.582
				c26.316,45.579,73.447,72.789,126.076,72.789h176.645L1113.162,908.701z"/>
			<path fill="#ADE05C" d="M1157.998,908.701l-68.9,115.718h80.285l8.737-9.501c18.409-20.023,29.971-44.327,34.367-72.239
				l5.35-33.977H1157.998z"/>
		</g>
		<g>
			<path fill="#ADE05C" d="M805.742,694.85l-47.592,82.432l1.499,10.132c4.6,31.123,17.307,57.547,37.768,78.538l27.105,27.805
				l30.17-52.256L805.742,694.85z"/>
			<path fill="#ADE05C" d="M1161.606,515.216c-26.314-45.579-73.445-72.791-126.076-72.791c-52.629,0-99.762,27.212-126.078,72.791
				l-77.975,135.057l48.95,146.653l129.243-223.851v-0.002c7.779-13.474,20.676-14.929,25.86-14.929
				c5.183,0,18.081,1.455,25.86,14.929l12.451,21.568l156.273,39.235L1161.606,515.216z"/>
		</g>
	</g>
</g>
</svg>
